<svg width="46" height="46" viewBox="0 0 46 46" fill="none" xmlns="http://www.w3.org/2000/svg">
<path d="M45.9653 15.6485C45.9548 15.5928 45.9455 15.537 45.9306 15.4825C45.9213 15.4497 45.9102 15.4187 45.8996 15.3865C45.8842 15.3382 45.8681 15.2899 45.8489 15.2428C45.8352 15.2099 45.8197 15.1784 45.8049 15.1468C45.7838 15.1022 45.7621 15.0582 45.7373 15.0154C45.72 14.9838 45.7002 14.9541 45.681 14.9238C45.6543 14.8829 45.6271 14.8426 45.5974 14.8036C45.5757 14.7745 45.5534 14.7466 45.5298 14.7187C45.4989 14.6815 45.4654 14.6462 45.432 14.6115C45.4059 14.5855 45.3799 14.5595 45.3527 14.5341C45.3167 14.5013 45.2796 14.4703 45.2405 14.4406C45.2108 14.4176 45.1817 14.3941 45.1507 14.373C45.1396 14.365 45.1297 14.3557 45.1179 14.3483L24.0958 0.33219C23.4324 -0.11073 22.567 -0.11073 21.9036 0.33219L0.880255 14.3476C0.868486 14.3551 0.859194 14.3644 0.847424 14.3724C0.816451 14.3941 0.787336 14.417 0.757602 14.4399C0.719195 14.4703 0.681408 14.5013 0.645479 14.5329C0.618223 14.5576 0.592206 14.5837 0.566808 14.6103C0.532118 14.645 0.499906 14.6803 0.468313 14.7175C0.444774 14.7453 0.422473 14.7732 0.400792 14.8042C0.371058 14.8432 0.343801 14.8829 0.317164 14.9244C0.297961 14.9547 0.278758 14.9845 0.260793 15.0161C0.236015 15.0588 0.214334 15.1028 0.193892 15.1461C0.179024 15.1777 0.162918 15.2099 0.14991 15.2422C0.130706 15.2892 0.113981 15.3376 0.0984944 15.3859C0.0879636 15.4181 0.0768133 15.4497 0.0681408 15.4788C0.0538932 15.5333 0.0433623 15.5884 0.0334509 15.6448C0.0278758 15.6733 0.0210617 15.7012 0.0173449 15.7303C0.00619462 15.8158 0 15.9013 0 15.9886V30.0072C0 30.0939 0.00619462 30.1806 0.0185839 30.2655C0.0229201 30.2965 0.0309731 30.3212 0.0371677 30.351C0.0470791 30.4067 0.0557516 30.4625 0.0743354 30.5182C0.0830079 30.5492 0.0929193 30.5802 0.105309 30.6143C0.120795 30.6638 0.136282 30.7134 0.154865 30.7586C0.167874 30.7896 0.185839 30.8205 0.198228 30.8515C0.21867 30.8949 0.24159 30.9382 0.266369 30.9835C0.283714 31.0144 0.303536 31.0454 0.32212 31.0739C0.348757 31.1173 0.377872 31.1544 0.408845 31.1916C0.430526 31.2226 0.452207 31.2474 0.476986 31.2771C0.508578 31.3143 0.538932 31.3514 0.5761 31.3843C0.601497 31.409 0.625656 31.44 0.65663 31.4586C0.692558 31.4896 0.730965 31.5205 0.768133 31.5527C0.797867 31.5775 0.830079 31.5961 0.854857 31.6203C0.866627 31.6265 0.873441 31.6389 0.88583 31.6444L21.9036 45.6673C22.2356 45.8903 22.6159 46.0018 23 46C23.3841 45.9981 23.7644 45.8885 24.0964 45.6673L45.1197 31.6519C45.1315 31.6444 45.1414 31.6358 45.1526 31.6277C45.1835 31.606 45.2127 31.5831 45.2424 31.5602C45.2808 31.5298 45.3186 31.4982 45.3545 31.466C45.3818 31.4419 45.4078 31.4152 45.4338 31.3892C45.4679 31.3545 45.5007 31.3192 45.5317 31.282C45.5552 31.2542 45.5775 31.2263 45.5992 31.1966C45.6289 31.1575 45.6562 31.1173 45.6828 31.0764C45.702 31.0466 45.7212 31.0163 45.7392 30.9859C45.764 30.9426 45.7857 30.8986 45.8067 30.854C45.8216 30.8224 45.8371 30.7908 45.8507 30.7586C45.8699 30.7109 45.886 30.6626 45.9015 30.6143C45.912 30.582 45.9232 30.5504 45.9325 30.5182C45.9467 30.4637 45.9566 30.408 45.9672 30.3522C45.9721 30.3237 45.9796 30.2958 45.9827 30.2667C45.9938 30.1812 46 30.0958 46 30.0084V15.9923C46 15.905 45.9932 15.8195 45.9827 15.734C45.9777 15.7037 45.9684 15.6789 45.9622 15.6485H45.9653ZM22.9994 27.6761L16.0088 23.0004L22.9994 18.324L29.9906 23.0004L22.9994 27.6761ZM21.0233 14.8903L12.4537 20.6222L5.53613 15.9948L21.0233 5.67014V14.8903ZM8.89857 22.9998L3.95403 26.3071V19.6924L8.89857 22.9998ZM12.4537 25.3798L21.0233 31.1111V40.3312L5.53613 30.0053L12.4537 25.3785V25.3798ZM24.9761 31.1098L33.5457 25.3785L40.4639 30.0053L24.9761 40.33V31.1098ZM37.1008 23.001L42.046 19.693V26.3083L37.1008 22.9998V23.001ZM33.5457 20.6222L24.9761 14.8909V5.67014L40.4639 15.9948L33.5457 20.6222Z" fill="#0d0d0d"/>
</svg>
