<svg width="46" height="45" viewBox="0 0 46 45" fill="none" xmlns="http://www.w3.org/2000/svg">
<path d="M23.0002 0C10.2992 0 0 10.3284 0 23.0696C0 33.2624 6.59025 41.9099 15.7289 44.9604C16.8784 45.1739 17.3004 44.4599 17.3004 43.8506C17.3004 43.3005 17.2791 41.4832 17.2692 39.5555C10.8705 40.951 9.52031 36.8336 9.52031 36.8336C8.47406 34.167 6.96656 33.458 6.96656 33.458C4.87975 32.0262 7.12386 32.0556 7.12386 32.0556C9.43348 32.2183 10.6496 34.4329 10.6496 34.4329C12.701 37.9598 16.0302 36.9401 17.3427 36.3507C17.5491 34.8596 18.1452 33.8419 18.803 33.2658C13.6943 32.6825 8.32399 30.7044 8.32399 21.8647C8.32399 19.3461 9.22247 17.2881 10.6938 15.6725C10.455 15.0915 9.66771 12.7451 10.9166 9.5674C10.9166 9.5674 12.848 8.94737 17.2433 11.9321C19.078 11.421 21.0455 11.1646 23.0002 11.1559C24.9548 11.1646 26.924 11.421 28.762 11.9321C33.152 8.94737 35.0807 9.5674 35.0807 9.5674C36.3327 12.7451 35.545 15.0915 35.3062 15.6725C36.781 17.2881 37.6733 19.3461 37.6733 21.8647C37.6733 30.7254 32.2927 32.6764 27.1711 33.2475C27.9961 33.9634 28.7312 35.3674 28.7312 37.5197C28.7312 40.6064 28.7045 43.0907 28.7045 43.8506C28.7045 44.4645 29.1185 45.1838 30.2844 44.9573C39.4181 41.9034 46 33.259 46 23.0696C46 10.3284 35.7023 0 23.0002 0ZM8.61432 32.8632C8.56366 32.9778 8.38389 33.0122 8.22011 32.9335C8.05329 32.8582 7.9596 32.702 8.01368 32.587C8.0632 32.4689 8.24335 32.4361 8.40979 32.5152C8.57699 32.5904 8.67221 32.7482 8.61432 32.8632ZM9.74567 33.8757C9.63598 33.9777 9.42155 33.9304 9.27606 33.7691C9.12561 33.6083 9.09743 33.3932 9.20864 33.2897C9.32176 33.1877 9.52972 33.2355 9.68054 33.3963C9.83099 33.559 9.86032 33.7726 9.74567 33.8757ZM10.5218 35.1712C10.3809 35.2694 10.1505 35.1773 10.008 34.9722C9.8671 34.7671 9.8671 34.521 10.0111 34.4225C10.1539 34.3239 10.3809 34.4125 10.5253 34.6162C10.6658 34.8247 10.6658 35.0708 10.5218 35.1712ZM11.8345 36.6716C11.7084 36.8111 11.4399 36.7736 11.2433 36.5834C11.0422 36.3973 10.9863 36.1333 11.1127 35.9939C11.2403 35.8541 11.5103 35.8934 11.7084 36.0822C11.908 36.2678 11.9689 36.5337 11.8345 36.6716ZM13.5309 37.1781C13.4753 37.3588 13.2167 37.441 12.9562 37.3642C12.696 37.2851 12.5258 37.0735 12.5784 36.8909C12.6324 36.709 12.8922 36.6234 13.1546 36.7056C13.4144 36.7843 13.585 36.9944 13.5309 37.1781ZM15.4616 37.393C15.468 37.5832 15.2471 37.741 14.9737 37.7444C14.6987 37.7506 14.4762 37.5966 14.4732 37.4094C14.4732 37.2173 14.6891 37.061 14.9641 37.0564C15.2376 37.0511 15.4616 37.2039 15.4616 37.393ZM17.3582 37.3201C17.391 37.5057 17.2009 37.6964 16.9293 37.7472C16.6623 37.7961 16.4152 37.6815 16.3813 37.4973C16.3481 37.3071 16.5416 37.1164 16.8082 37.0672C17.0802 37.0198 17.3235 37.1313 17.3582 37.3201Z" fill="#0D0D0D"/>
</svg>
