<svg width="15" height="14" viewBox="0 0 15 14" fill="none" xmlns="http://www.w3.org/2000/svg">
<path d="M7.43893 14H7.42856C5.51665 13.9645 0 8.98001 0 4.25907C0 1.99112 1.86898 0 3.99925 0C5.69429 0 6.83419 1.1695 7.43819 2.02073C8.0407 1.17098 9.1806 0 10.8764 0C13.0081 0 14.8764 1.99112 14.8764 4.25981C14.8764 8.97927 9.35898 13.9637 7.44707 13.9985H7.43893V14ZM4 1.11103C2.4604 1.11103 1.11103 2.58253 1.11103 4.26055C1.11103 8.50925 6.31754 12.8438 7.43967 12.8897C8.56328 12.8438 13.7683 8.50999 13.7683 4.26055C13.7683 2.58253 12.4189 1.11103 10.8793 1.11103C9.00813 1.11103 7.96298 3.28423 7.9541 3.3057C7.78385 3.72169 7.09844 3.72169 6.92745 3.3057C6.91709 3.28349 5.87268 1.11103 4.00074 1.11103H4Z" fill="#687684"/>
</svg>
