<svg width="53" height="60" viewBox="0 0 53 60" fill="none" xmlns="http://www.w3.org/2000/svg">
<path d="M12.7984 11.6994C13.9923 6.09415 17.3252 2.34735 22.8808 0.924634C28.498 -0.515985 33.3551 1.12361 36.9487 5.6544C40.4766 10.0956 41.0556 15.0423 38.2878 20.1442C37.3387 21.8912 36.099 23.4831 35.132 25.2202C34.4893 26.3723 33.5521 28.8754 33.5521 28.8754L33.3929 29.2873C33.3497 29.3912 33.2869 29.4858 33.2079 29.5659C33.1271 29.6456 33.0319 29.709 32.9273 29.7529C32.8234 29.7966 32.7117 29.8189 32.599 29.8186C32.4856 29.8188 32.3733 29.7964 32.2687 29.7529C32.1644 29.7105 32.0696 29.6476 31.9901 29.5679C31.9104 29.4879 31.8469 29.3933 31.8031 29.2893C31.7598 29.1849 31.7375 29.073 31.7375 28.96C31.7375 28.847 31.7598 28.7351 31.8031 28.6307L32.0717 27.978C32.2129 27.598 32.794 26.0698 33.3352 25.0112C34.2744 23.1647 35.5598 21.5092 36.6442 19.7402C41.4198 11.9362 35.2056 2.0628 26.2734 2.03097C25.1929 2.21005 24.0846 2.29561 23.038 2.58015C15.9801 4.47445 11.714 12.8754 15.8806 19.6985C16.981 21.5052 18.2505 23.2184 19.2494 25.0709C19.6803 25.9575 20.0396 26.877 20.3239 27.8208L20.6522 28.6168C20.6984 28.7223 20.7234 28.8359 20.7258 28.951C20.7288 29.066 20.7085 29.1804 20.6661 29.2873C20.6193 29.3945 20.5517 29.4912 20.4671 29.5719C20.388 29.6574 20.2917 29.7252 20.1846 29.7708C20.078 29.8147 19.9635 29.8363 19.8483 29.8345C19.7333 29.8345 19.6195 29.8108 19.514 29.7649C19.4081 29.718 19.3127 29.6504 19.2334 29.5659C19.1541 29.4831 19.0924 29.3849 19.0524 29.2774L18.9967 29.1401C18.9967 29.1401 18.921 28.9411 18.7977 28.6307L18.6226 28.2049C18.2007 27.1821 17.5123 25.5624 17.0108 24.6232C16.1512 23.0115 15.021 21.549 14.1336 19.9492C12.7049 17.3823 12.1736 14.6185 12.7984 11.6994ZM19.2394 40.7625C18.7161 41.449 19.2514 41.8311 19.7428 42.2111C23.1255 44.8357 29.4929 44.8317 32.8179 42.1733C33.1342 41.9206 33.5043 41.447 33.4665 41.1247C33.4287 40.8023 33.2258 40.5277 32.5671 40.2989C28.5358 38.906 24.4706 37.6047 20.4293 36.2437C19.7906 36.0288 19.3449 36.0666 19.0902 36.7352C18.9429 37.1192 19.1578 37.5311 19.9299 37.7917C23.0459 38.853 26.1633 39.9069 29.282 40.9536C29.6978 41.0909 30.1097 41.2441 30.5256 41.3913C27.1429 42.8936 23.8458 42.9513 20.6641 40.87C20.296 40.6332 19.6374 40.2392 19.2394 40.7625ZM32.1453 31.8084C28.2015 31.8084 24.2597 31.7865 20.3179 31.8363C19.8841 31.8363 19.1817 31.9377 19.1578 32.5387C19.134 33.1396 19.6414 33.4162 20.0632 33.5614C24.0428 34.9443 28.0622 36.2437 32.0617 37.5908C32.8576 37.8196 33.2556 37.7002 33.4228 37.149C33.5222 36.8327 33.4228 36.379 32.5313 36.0387C30.641 35.3105 28.695 34.7215 26.7728 34.0728C26.4087 33.9494 24.7571 33.446 24.7571 33.446H32.1353C32.7542 33.446 33.4964 33.3585 33.4964 32.6362C33.4964 31.9139 32.7641 31.8044 32.1453 31.8044V31.8084ZM12.9755 24.0223C12.9163 23.9204 12.8375 23.8314 12.7435 23.7603C12.6496 23.6893 12.5424 23.6376 12.4283 23.6084C12.3148 23.5784 12.1965 23.5709 12.0801 23.5865C11.9636 23.6035 11.8515 23.6427 11.7498 23.7019L6.96431 26.5096C6.77407 26.6357 6.63918 26.8297 6.58721 27.052C6.53524 27.2742 6.57011 27.5079 6.68469 27.7053C6.79927 27.9027 6.98492 28.0489 7.20369 28.114C7.42246 28.1792 7.65783 28.1583 7.86171 28.0556L12.6552 25.246C12.7572 25.1874 12.8465 25.1089 12.9178 25.0152C12.9878 24.921 13.0392 24.8143 13.069 24.7008C13.0991 24.5873 13.1065 24.469 13.0909 24.3526C13.0739 24.2361 13.0347 24.124 12.9755 24.0223ZM12.9755 3.28653L8.39299 0.156569C8.29681 0.0892077 8.18774 0.0424634 8.07263 0.0192726C7.95711 -0.00458953 7.83794 -0.00458953 7.72242 0.0192726C7.60703 0.0412207 7.49692 0.0851285 7.39808 0.14861C7.29978 0.21454 7.21529 0.299029 7.14936 0.397336C7.08229 0.49441 7.03559 0.604065 7.01206 0.719684C6.97724 0.891733 6.99376 1.07022 7.05956 1.23296C7.12536 1.39569 7.23755 1.5355 7.38217 1.63499L11.9726 4.77491C12.0697 4.84068 12.1784 4.88729 12.293 4.9122C12.4079 4.9351 12.5263 4.9351 12.6412 4.9122C12.7576 4.8891 12.868 4.84237 12.9656 4.77491C13.0643 4.71112 13.1492 4.62829 13.2155 4.53125C13.2818 4.43422 13.3281 4.32494 13.3516 4.2098C13.3754 4.09429 13.3754 3.97511 13.3516 3.8596C13.3296 3.7442 13.2857 3.63409 13.2222 3.53526C13.1592 3.43728 13.0774 3.35275 12.9815 3.28653H12.9755ZM9.15309 13.2097L3.58164 13.1898C3.46429 13.1888 3.34792 13.2112 3.23929 13.2556C3.13066 13.3 3.03195 13.3656 2.94888 13.4485C2.82381 13.5737 2.73866 13.7332 2.70417 13.9068C2.66969 14.0803 2.68742 14.2603 2.75513 14.4238C2.82283 14.5873 2.93748 14.7271 3.08458 14.8255C3.23169 14.9239 3.40466 14.9765 3.58164 14.9766L9.13717 14.9945C9.37465 14.9945 9.6024 14.9002 9.77033 14.7323C9.93825 14.5644 10.0326 14.3366 10.0326 14.0991C10.0326 13.8617 9.93825 13.6339 9.77033 13.466C9.6024 13.2981 9.37465 13.2037 9.13717 13.2037L9.15309 13.2097ZM40.0229 24.5038C40.0284 24.6553 40.0715 24.803 40.1483 24.9336C40.2259 25.0627 40.3347 25.1701 40.4647 25.246L45.2482 28.0556C45.4538 28.1752 45.6984 28.2088 45.9287 28.1492C46.0999 28.1045 46.254 28.0099 46.3713 27.8774C46.4886 27.7448 46.5638 27.5804 46.5873 27.405C46.6021 27.2897 46.5933 27.1725 46.5614 27.0607C46.5006 26.8311 46.352 26.6346 46.1476 26.5135L41.3541 23.7059C41.2507 23.6451 41.1362 23.6057 41.0172 23.59C40.8983 23.5743 40.7775 23.5827 40.6618 23.6146C40.5462 23.6465 40.4382 23.7013 40.3441 23.7758C40.2501 23.8503 40.172 23.9429 40.1145 24.0482C40.0414 24.1886 40.0064 24.3457 40.013 24.5038H40.0229ZM39.7384 4.05659C39.7444 4.21615 39.7924 4.37129 39.8777 4.50628C39.9643 4.64126 40.0854 4.75063 40.2285 4.82305C40.3716 4.89547 40.5315 4.92831 40.6915 4.91817C40.8511 4.90629 41.0048 4.85278 41.1372 4.76297L45.7257 1.633C45.8231 1.56716 45.9063 1.48257 45.9705 1.38417C46.0347 1.28576 46.0787 1.17554 46.0998 1.05994C46.1227 0.944997 46.1227 0.826668 46.0998 0.711725C46.0757 0.596548 46.029 0.487294 45.9624 0.390291C45.8958 0.293289 45.8106 0.210466 45.7118 0.14662C45.6137 0.0819253 45.5037 0.0373544 45.3883 0.0154936C45.2728 -0.00636727 45.1542 -0.00508276 45.0392 0.0192726C44.9236 0.0427983 44.814 0.0895032 44.7169 0.156569L40.1284 3.28653C40.0019 3.37029 39.8989 3.48502 39.8293 3.6198C39.7596 3.75459 39.7256 3.90495 39.7304 4.05659H39.7384ZM43.6285 13.6276C43.5432 13.7631 43.496 13.9192 43.4917 14.0793C43.4874 14.2394 43.5263 14.3977 43.6042 14.5377C43.6821 14.6776 43.7962 14.7941 43.9345 14.8748C44.0729 14.9555 44.2304 14.9976 44.3906 14.9965L49.9461 14.9766C50.1836 14.9766 50.4113 14.8823 50.5793 14.7144C50.7472 14.5465 50.8415 14.3187 50.8415 14.0812C50.8415 13.8438 50.7472 13.616 50.5793 13.4481C50.4113 13.2802 50.1836 13.1858 49.9461 13.1858L44.3906 13.2057C44.2392 13.2056 44.0903 13.2441 43.958 13.3175C43.8257 13.391 43.7143 13.497 43.6344 13.6256L43.6285 13.6276Z" fill="white"/>
<path d="M22.4306 13.9813C22.4306 13.9813 22.4088 10.8593 26.5615 10.4932C26.5615 10.4932 29.2437 10.4613 29.8765 13.0799C29.8765 13.0799 30.1969 14.2181 28.8816 14.2937H23.8076C23.8076 14.2937 22.4008 14.3056 22.4306 13.9813Z" fill="#FFCF00"/>
<path d="M26.5143 20.6655C23.6072 20.6655 21.3408 18.4906 21.3408 15.2652C21.3408 11.9243 23.7425 9.72754 26.4427 9.72754C29.5786 9.72754 30.9516 12.175 30.9516 13.4803C30.9516 14.3499 30.4263 14.9906 29.2801 15.0125C28.7548 15.0363 27.9768 15.0363 27.1292 15.0363C25.414 15.0363 23.4679 15.0125 22.9645 15.0125C22.7357 15.0125 22.6899 15.104 22.6899 15.4244C22.6899 17.9196 24.3375 19.4517 26.5342 19.4517C27.1655 19.4725 27.7931 19.3471 28.3678 19.0851C28.9426 18.8231 29.4489 18.4317 29.8472 17.9415C29.9065 17.8795 29.9775 17.8301 30.056 17.7959C30.1346 17.7617 30.2192 17.7436 30.3049 17.7425C30.4819 17.7457 30.651 17.8159 30.7784 17.9388C30.9058 18.0617 30.9819 18.2283 30.9914 18.4051C30.9993 18.9264 29.3975 20.6655 26.5143 20.6655ZM26.4646 10.8717C24.2758 10.8717 22.871 12.8396 22.871 13.6853C22.871 13.9141 23.07 13.9141 25.7323 13.9141C26.9262 13.9141 28.2037 13.9141 28.8444 13.8922C29.3936 13.8683 29.5985 13.6176 29.5985 13.2515C29.6025 12.5869 28.8026 10.8717 26.4646 10.8717Z" fill="white"/>
<path d="M4.04726 60.0006C1.77292 60.0006 0 58.3013 0 55.7742C0 53.1596 1.88037 51.4404 3.99354 51.4404C6.44697 51.4404 7.52146 53.3566 7.52146 54.3774C7.52146 55.0579 7.10957 55.5593 6.21416 55.5713C5.80227 55.5892 5.19339 55.5892 4.53079 55.5892C3.18767 55.5892 1.66547 55.5713 1.27149 55.5713C1.0924 55.5713 1.05659 55.6429 1.05659 55.8936C1.05659 57.8456 2.34598 59.0455 4.06517 59.0455C4.55819 59.0606 5.04806 58.9619 5.4967 58.7569C5.94534 58.5519 6.34066 58.2462 6.65192 57.8635C6.69791 57.8142 6.75328 57.7746 6.81477 57.7469C6.87627 57.7192 6.94267 57.7041 7.01008 57.7023C7.14878 57.7047 7.28142 57.7596 7.38115 57.856C7.48089 57.9525 7.54029 58.0831 7.54733 58.2217C7.56126 58.6395 6.3037 60.0006 4.04726 60.0006ZM4.01145 52.3319C2.29226 52.3319 1.19388 53.876 1.19388 54.5386C1.19388 54.7176 1.35506 54.7176 3.43241 54.7176C4.36364 54.7176 5.36651 54.7176 5.86794 54.6997C6.29773 54.6818 6.46488 54.4848 6.46488 54.1983C6.46488 53.679 5.83809 52.3319 4.01145 52.3319Z" fill="white"/>
<path d="M16.8875 52.0305C16.8517 53.4095 16.8338 54.878 16.8338 56.3823C16.8338 57.5284 16.9054 58.3522 17.371 59.0148C17.4492 59.1181 17.493 59.2434 17.4964 59.3729C17.4872 59.5123 17.424 59.6425 17.3204 59.7361C17.2168 59.8298 17.0808 59.8793 16.9412 59.8744C16.3443 59.8744 16.0995 58.9252 16.0637 58.6208C16.0458 58.5491 16.0458 58.5312 16.0279 58.5312C16.01 58.5312 15.9921 58.5312 15.9742 58.5671C15.3653 59.4983 14.2192 59.9997 13.0909 59.9997C11.6046 59.9997 10.1719 59.1043 10.1182 57.1344C10.1003 56.4897 10.0645 54.8242 10.0645 53.4632C10.0645 52.9081 10.0645 52.3887 10.0824 52.0126C10.0777 51.9432 10.0879 51.8736 10.1123 51.8085C10.1367 51.7433 10.1748 51.6842 10.224 51.635C10.2732 51.5858 10.3324 51.5477 10.3975 51.5232C10.4627 51.4988 10.5323 51.4886 10.6017 51.4933C10.6703 51.4893 10.739 51.4992 10.8037 51.5225C10.8683 51.5458 10.9275 51.582 10.9778 51.6289C11.028 51.6758 11.0682 51.7324 11.0959 51.7953C11.1236 51.8582 11.1383 51.926 11.1389 51.9947V52.0126C11.121 52.7648 11.1031 54.1795 11.1031 55.3436C11.1031 56.0957 11.121 56.7225 11.1389 57.009C11.2285 58.4775 12.1597 59.0864 13.1626 59.0864C14.4162 59.0864 15.7772 58.1373 15.813 56.6688C15.8309 56.0599 15.8488 55.451 15.8488 54.8421C15.8488 53.893 15.8309 52.9618 15.813 52.0126V51.9947C15.8122 51.9279 15.8254 51.8617 15.8517 51.8003C15.878 51.7389 15.9168 51.6836 15.9657 51.6381C16.0146 51.5926 16.0725 51.5578 16.1356 51.5359C16.1988 51.5141 16.2658 51.5057 16.3323 51.5112C16.4019 51.5069 16.4716 51.5166 16.5374 51.5396C16.6031 51.5626 16.6637 51.5985 16.7154 51.6452C16.7671 51.6919 16.8089 51.7484 16.8385 51.8115C16.8681 51.8746 16.8847 51.943 16.8875 52.0126V52.0305Z" fill="white"/>
<path d="M21.132 59.4273C21.1327 59.4941 21.1196 59.5603 21.0933 59.6217C21.067 59.6832 21.0281 59.7384 20.9792 59.7839C20.9303 59.8294 20.8725 59.8642 20.8093 59.8861C20.7462 59.908 20.6792 59.9164 20.6126 59.9108C20.5418 59.9168 20.4705 59.9084 20.403 59.8863C20.3355 59.8641 20.2731 59.8285 20.2197 59.7817C20.1662 59.7349 20.1227 59.6779 20.0917 59.6139C20.0608 59.5499 20.043 59.4804 20.0396 59.4094V59.3915C20.0754 57.9409 20.1112 56.2575 20.1112 54.7174C20.1112 53.7225 20.0933 52.7654 20.0754 51.9775V51.9596C20.089 51.8249 20.1546 51.7009 20.2583 51.6139C20.362 51.527 20.4956 51.4839 20.6305 51.494C20.6995 51.4884 20.7688 51.4973 20.8341 51.5201C20.8994 51.5428 20.9592 51.579 21.0098 51.6261C21.0603 51.6733 21.1005 51.7305 21.1277 51.7941C21.1549 51.8577 21.1685 51.9262 21.1678 51.9954C21.1678 52.264 21.1499 52.3933 21.1499 52.6401C21.1494 52.6709 21.1555 52.7014 21.1678 52.7296C21.1857 52.7296 21.2215 52.6938 21.2394 52.658C22.0353 51.5656 23.6391 51.4641 23.854 51.4641C23.923 51.4551 23.9932 51.4608 24.0598 51.4809C24.1264 51.5011 24.188 51.5351 24.2405 51.5808C24.293 51.6265 24.3352 51.6829 24.3642 51.7461C24.3933 51.8093 24.4086 51.878 24.4092 51.9476C24.4082 52.0186 24.3929 52.0887 24.3642 52.1536C24.3355 52.2185 24.294 52.277 24.2421 52.3255C24.1903 52.374 24.1292 52.4115 24.0625 52.4358C23.9958 52.4601 23.9249 52.4707 23.854 52.467C22.5825 52.467 21.1678 53.2728 21.132 54.6557C21.114 55.1214 21.114 55.9451 21.114 56.9659C21.114 57.7002 21.114 58.5418 21.132 59.4193V59.4273Z" fill="white"/>
<path d="M30.0141 60.0006C27.7397 60.0006 25.9668 58.2993 25.9668 55.7742C25.9668 53.1596 27.8472 51.4404 29.9603 51.4404C32.4138 51.4404 33.4883 53.3566 33.4883 54.3774C33.4883 55.0579 33.0764 55.5593 32.181 55.5713C31.7691 55.5892 31.1602 55.5892 30.4976 55.5892C29.1545 55.5892 27.6323 55.5713 27.2383 55.5713C27.0592 55.5713 27.0234 55.6429 27.0234 55.8936C27.0234 57.8456 28.3128 59.0455 30.032 59.0455C30.525 59.0606 31.0149 58.9619 31.4635 58.7569C31.9121 58.5519 32.3075 58.2462 32.6187 57.8635C32.6647 57.8142 32.7201 57.7746 32.7816 57.7469C32.8431 57.7192 32.9095 57.7041 32.9769 57.7023C33.1156 57.7047 33.2482 57.7596 33.348 57.856C33.4477 57.9525 33.5071 58.0831 33.5141 58.2217C33.5241 58.6395 32.2705 60.0006 30.0141 60.0006ZM29.9782 52.3319C28.2591 52.3319 27.1666 53.872 27.1666 54.5346C27.1666 54.7137 27.3278 54.7137 29.4052 54.7137C30.3364 54.7137 31.3393 54.7137 31.8407 54.6958C32.2705 54.6778 32.4376 54.4809 32.4376 54.1943C32.4337 53.679 31.8049 52.3319 29.9782 52.3319Z" fill="white"/>
<path d="M36.1388 59.3913C36.1925 57.0811 36.2104 53.5353 36.2104 50.7058C36.2104 49.291 36.2104 48.0554 36.1925 47.2316C36.2085 47.1003 36.272 46.9795 36.371 46.8919C36.4699 46.8042 36.5976 46.7559 36.7298 46.7559C36.862 46.7559 36.9896 46.8042 37.0886 46.8919C37.1875 46.9795 37.251 47.1003 37.267 47.2316V47.2495C37.2312 48.5031 37.2312 50.7953 37.2312 52.423V54.3033C37.2312 54.5023 37.3207 54.572 37.4998 54.572C37.6294 54.5686 37.7546 54.5248 37.858 54.4466C38.9504 53.6945 40.7233 52.423 41.762 51.635C41.8588 51.5575 41.9782 51.5135 42.1022 51.5097C42.2532 51.5202 42.3945 51.5878 42.4976 51.6986C42.6006 51.8094 42.6578 51.9553 42.6574 52.1066C42.6599 52.1812 42.6429 52.2551 42.608 52.3211C42.5731 52.3871 42.5215 52.4428 42.4584 52.4827C41.366 53.2348 39.7901 54.3093 38.8051 54.9361C38.6977 55.0077 38.6439 55.0615 38.6439 55.1152C38.6439 55.1689 38.6977 55.2226 38.7872 55.3142C39.7184 56.2096 42.1181 58.269 42.727 58.8421C42.8189 58.9183 42.8854 59.0206 42.9176 59.1356C42.9498 59.2505 42.9463 59.3725 42.9073 59.4854C42.8684 59.5982 42.796 59.6965 42.6998 59.7671C42.6036 59.8378 42.4882 59.8774 42.3689 59.8808C42.2948 59.8842 42.2209 59.8716 42.1522 59.8438C42.0835 59.816 42.0217 59.7736 41.9709 59.7196C41.4157 59.1823 38.7872 56.6573 37.9595 55.7977C37.9001 55.7233 37.8232 55.6647 37.7357 55.6272C37.6483 55.5897 37.5528 55.5745 37.458 55.5828C37.1715 55.5828 37.1715 55.7081 37.1715 57.4273C37.1715 57.9109 37.1715 58.5197 37.1894 59.3614C37.1902 59.4306 37.1765 59.4991 37.1493 59.5627C37.1221 59.6263 37.082 59.6835 37.0314 59.7307C36.9808 59.7779 36.921 59.814 36.8557 59.8367C36.7904 59.8595 36.7211 59.8684 36.6522 59.8629C36.588 59.871 36.5229 59.8655 36.461 59.8468C36.3991 59.8282 36.3419 59.7967 36.2929 59.7545C36.244 59.7123 36.2044 59.6603 36.1768 59.6018C36.1492 59.5434 36.1343 59.4798 36.1328 59.4152L36.1388 59.3913Z" fill="white"/>
<path d="M50.4113 58.5315C49.8741 59.4448 48.6742 59.9999 47.5818 59.9999C45.7731 59.9999 44.6807 58.7643 44.6807 57.5286C44.6807 56.6332 45.2776 55.7199 46.5968 55.308C47.6858 54.9983 48.7921 54.7532 49.9099 54.5737C50.1228 54.5379 50.1964 54.4842 50.1964 54.3588C50.1964 54.2693 50.2123 54.1598 50.2123 54.0723C50.2123 53.0873 49.8024 52.3173 48.3519 52.3173C47.9622 52.3079 47.5748 52.3795 47.2141 52.5275C46.8535 52.6754 46.5274 52.8966 46.2566 53.1769C46.2105 53.232 46.153 53.2766 46.0881 53.3075C46.0232 53.3384 45.9524 53.3549 45.8805 53.356C45.8156 53.3581 45.7509 53.3472 45.6903 53.3239C45.6297 53.3005 45.5743 53.2653 45.5276 53.2202C45.4808 53.1751 45.4436 53.1211 45.4181 53.0614C45.3926 53.0016 45.3793 52.9374 45.3791 52.8724C45.3791 52.1919 46.8834 51.4219 48.4235 51.4219C50.089 51.4219 51.2092 52.1561 51.2092 54.1618C51.2119 54.3292 51.2059 54.4965 51.1913 54.6633C51.1356 55.2602 51.0998 56.0561 51.0998 56.6531C51.0998 58.1395 51.3863 58.4976 52.0947 58.8737C52.1586 58.9082 52.2113 58.9602 52.2466 59.0237C52.2818 59.0871 52.2982 59.1594 52.2937 59.2319C52.2918 59.3751 52.2354 59.5123 52.136 59.6154C52.0365 59.7186 51.9015 59.7799 51.7584 59.787C51.4547 59.7191 51.1762 59.5673 50.9545 59.3488C50.7329 59.1304 50.5771 58.854 50.5048 58.5514C50.4869 58.4976 50.4869 58.4797 50.4491 58.4797C50.4325 58.4937 50.4196 58.5114 50.4113 58.5315ZM50.1606 56.2929C50.1606 56.0939 50.1785 55.895 50.1785 55.684C50.1785 55.5408 50.1228 55.4851 49.9974 55.4851H49.9437C47.1321 55.9328 45.6457 56.2909 45.6457 57.5445C45.6457 58.2967 46.362 59.0488 47.5619 59.0488C49.2095 59.0508 50.1606 57.8151 50.1606 56.2929Z" fill="white"/>
</svg>
