<svg xmlns="http://www.w3.org/2000/svg" viewBox="0 0 438.14 112.46"><defs><style>.b6f34a9a-ddb5-4998-9d1a-016f58d0e765{fill:#ffcf00;}.acc575a2-9f64-448b-85d9-09af1faa6dab{fill:#0d0d0d;}</style></defs><title>アセット 3</title><g id="a3960cf6-1736-4228-a232-e7cc43b83ccd" data-name="レイヤー 2"><g id="a91cdc06-9205-4f27-aecf-e5b646bbf958" data-name="レイヤー 1"><path class="b6f34a9a-ddb5-4998-9d1a-016f58d0e765" d="M34.6,47.8c-14.4,0-23.55,12.9-23.55,18.45,0,1.5,1.35,1.5,18.75,1.5,7.8,0,16.2,0,20.4-.15,3.6-.15,4.95-1.8,4.95-4.2C55.15,59.05,49.9,47.8,34.6,47.8Z"/><path class="acc575a2-9f64-448b-85d9-09af1faa6dab" d="M141.45,44.25C141.15,55.8,141,68.1,141,80.7c0,9.6.6,16.5,4.5,22a5.2,5.2,0,0,1,1.05,3,4.5,4.5,0,0,1-4.65,4.2c-5,0-7.05-8-7.35-10.5-.15-.6-.15-.75-.3-.75s-.3,0-.45.3c-5.1,7.8-14.7,12-24.15,12-12.45,0-24.45-7.5-24.9-24-.15-5.4-.45-19.35-.45-30.75,0-4.65,0-9,.15-12.15a4.08,4.08,0,0,1,4.35-4.35A4.26,4.26,0,0,1,93.3,44v.15C93.15,50.4,93,62.25,93,72c0,6.3.15,11.55.3,14,.75,12.3,8.55,17.4,17,17.4,10.5,0,21.9-7.95,22.2-20.25.15-5.1.3-10.2.3-15.3,0-7.95-.15-15.75-.3-23.7V44c0-2.7,2.1-4.05,4.35-4.05a4.38,4.38,0,0,1,4.65,4.2Z"/><path class="acc575a2-9f64-448b-85d9-09af1faa6dab" d="M177,106.2c0,2.7-2.1,4-4.35,4-2.4,0-4.8-1.5-4.8-4.2v-.15c.3-12.15.6-26.25.6-39.15,0-8.4-.15-16.35-.3-23v-.15c0-2.4,2.4-3.9,4.65-3.9s4.5,1.35,4.5,4.2c0,2.25-.15,3.3-.15,5.4a1.82,1.82,0,0,0,.15.75c.15,0,.45-.3.6-.6,6.6-9.15,20.1-10,21.89-10,3.15,0,4.65,1.95,4.65,4a4.42,4.42,0,0,1-4.65,4.35c-10.64,0-22.49,6.75-22.79,18.3-.15,3.9-.15,10.8-.15,19.35,0,6.15,0,13.2.15,20.55Z"/><path class="acc575a2-9f64-448b-85d9-09af1faa6dab" d="M251.39,111c-19,0-33.89-14.25-33.89-35.4,0-21.9,15.74-36.3,33.44-36.3,20.55,0,29.55,16.05,29.55,24.6,0,5.7-3.45,9.9-10.95,10.05-3.45.15-8.55.15-14.1.15-11.25,0-24-.15-27.3-.15-1.5,0-1.8.6-1.8,2.7,0,16.35,10.8,26.4,25.2,26.4,11,0,17.1-4.65,21.75-9.9a4.24,4.24,0,0,1,3-1.35,4.59,4.59,0,0,1,4.5,4.35C280.79,99.6,270.29,111,251.39,111Zm-.3-64.2c-14.4,0-23.55,12.9-23.55,18.45,0,1.5,1.35,1.5,18.75,1.5,7.8,0,16.2,0,20.4-.15,3.6-.15,4.95-1.8,4.95-4.2C271.64,58.05,266.39,46.8,251.09,46.8Z"/><path class="acc575a2-9f64-448b-85d9-09af1faa6dab" d="M302.69,105.9c.45-19.35.6-49.05.6-72.75,0-11.85,0-22.2-.15-29.1,0-2.7,2.25-4,4.5-4s4.5,1.35,4.5,4.05V4.2c-.3,10.5-.3,29.7-.3,43.35V63.3c0,1.65.75,2.25,2.25,2.25a5.2,5.2,0,0,0,3-1c9.15-6.3,24-17,32.7-23.55a4.8,4.8,0,0,1,2.85-1.05,4.93,4.93,0,0,1,4.65,5A3.55,3.55,0,0,1,355.64,48c-9.15,6.3-22.35,15.3-30.6,20.55-.9.6-1.35,1-1.35,1.5s.45.9,1.2,1.65c7.8,7.5,27.9,24.75,33,29.55a5,5,0,0,1,1.8,3.9,4.94,4.94,0,0,1-4.8,4.8,4.3,4.3,0,0,1-3.3-1.35c-4.65-4.5-26.7-25.65-33.6-32.85a4.83,4.83,0,0,0-4.2-1.8c-2.4,0-2.4,1-2.4,15.45,0,4,0,9.15.15,16.2,0,2.85-2.25,4.2-4.5,4.2s-4.35-1.2-4.35-3.75Z"/><path class="acc575a2-9f64-448b-85d9-09af1faa6dab" d="M422.24,98.7c-4.5,7.65-14.55,12.3-23.7,12.3-15.15,0-24.3-10.35-24.3-20.7,0-7.5,4.95-15.15,16.05-18.6A241.34,241.34,0,0,1,418,65.55c1.8-.3,2.4-.75,2.4-1.8,0-.75.15-1.65.15-2.4,0-8.25-3.45-14.7-15.6-14.7a23.62,23.62,0,0,0-17.55,7.2,4.18,4.18,0,0,1-3.15,1.5,4.07,4.07,0,0,1-4.2-4.05c0-5.7,12.6-12.15,25.5-12.15,14,0,23.4,6.15,23.4,23a40.73,40.73,0,0,1-.15,4.2c-.45,5-.75,11.7-.75,16.65,0,12.45,2.4,15.45,8.4,18.6a3.17,3.17,0,0,1,1.65,3,4.74,4.74,0,0,1-4.5,4.65,13.92,13.92,0,0,1-10.5-10.35c-.15-.45-.15-.6-.45-.6A1.12,1.12,0,0,0,422.24,98.7ZM420.14,80c0-1.65.15-3.3.15-5.1,0-1.2-.45-1.65-1.5-1.65h-.45c-23.55,3.75-36,6.75-36,17.25,0,6.3,6,12.6,16.05,12.6C412.19,103.05,420.14,92.7,420.14,80Z"/><path class="b6f34a9a-ddb5-4998-9d1a-016f58d0e765" d="M7.14,68.65S7,48.18,34.21,45.79c0,0,17.58-.21,21.72,16.94,0,0,2.11,7.46-6.53,8H16.14S6.94,70.78,7.14,68.65Z"/><path class="acc575a2-9f64-448b-85d9-09af1faa6dab" d="M33.9,112.46c-19,0-33.9-14.25-33.9-35.4,0-21.9,15.75-36.3,33.45-36.3C54,40.76,63,56.81,63,65.36c0,5.7-3.45,9.9-11,10-3.45.15-8.55.15-14.1.15-11.25,0-24-.15-27.3-.15-1.5,0-1.8.6-1.8,2.7,0,16.35,10.8,26.4,25.2,26.4,11,0,17.1-4.65,21.75-9.9a4.24,4.24,0,0,1,3-1.35,4.59,4.59,0,0,1,4.5,4.35C63.3,101.06,52.8,112.46,33.9,112.46Zm-.3-64.2c-14.4,0-23.55,12.9-23.55,18.45,0,1.5,1.35,1.5,18.75,1.5,7.8,0,16.2,0,20.4-.15,3.6-.15,4.95-1.8,4.95-4.2C54.15,59.51,48.9,48.26,33.6,48.26Z"/></g></g></svg>