<svg width="47" height="38" viewBox="0 0 47 38" fill="none" xmlns="http://www.w3.org/2000/svg">
<path d="M46.759 4.49837C45.0386 5.26135 43.1897 5.77702 41.2491 6.00894C43.2299 4.82162 44.7509 2.94161 45.4672 0.701582C43.6137 1.80082 41.5606 2.5992 39.3755 3.02953C37.6254 1.16508 35.1323 0 32.3731 0C27.075 0 22.7797 4.29518 22.7797 9.59296C22.7797 10.3448 22.8647 11.077 23.0282 11.7791C15.0553 11.3791 7.98661 7.55988 3.25512 1.75601C2.42937 3.17285 1.95629 4.82077 1.95629 6.57882C1.95629 9.90698 3.65004 12.8433 6.2241 14.5635C4.65144 14.5138 3.17234 14.0823 1.87881 13.3637C1.87812 13.4038 1.87812 13.444 1.87812 13.4843C1.87812 18.1323 5.1849 22.0097 9.57346 22.8909C8.7684 23.1101 7.92093 23.2273 7.04592 23.2273C6.4278 23.2273 5.82679 23.1672 5.24117 23.0552C6.46184 26.8665 10.0046 29.64 14.2025 29.7175C10.9193 32.2904 6.78287 33.824 2.28844 33.824C1.51416 33.824 0.750497 33.7787 0 33.6901C4.24541 36.4119 9.288 38 14.7055 38C32.3507 38 41.9998 23.3822 41.9998 10.7054C41.9998 10.2894 41.9906 9.87568 41.9721 9.46434C43.8463 8.1118 45.4728 6.42216 46.759 4.49837Z" fill="#55ACEE"/>
</svg>
